<svg width="19" height="17" viewBox="0 0 19 17" fill="none" xmlns="http://www.w3.org/2000/svg">
<path d="M12.6667 1.375H0.791687V11.6667H12.6667V1.375Z" stroke="#47654A" stroke-width="2" stroke-linecap="round" stroke-linejoin="round"/>
<path d="M12.6667 5.33337H15.8334L18.2084 7.70837V11.6667H12.6667V5.33337Z" stroke="#47654A" stroke-width="2" stroke-linecap="round" stroke-linejoin="round"/>
<path d="M4.35417 15.625C5.44723 15.625 6.33333 14.7389 6.33333 13.6458C6.33333 12.5527 5.44723 11.6666 4.35417 11.6666C3.2611 11.6666 2.375 12.5527 2.375 13.6458C2.375 14.7389 3.2611 15.625 4.35417 15.625Z" stroke="#47654A" stroke-width="2" stroke-linecap="round" stroke-linejoin="round"/>
<path d="M14.6459 15.625C15.7389 15.625 16.625 14.7389 16.625 13.6458C16.625 12.5527 15.7389 11.6666 14.6459 11.6666C13.5528 11.6666 12.6667 12.5527 12.6667 13.6458C12.6667 14.7389 13.5528 15.625 14.6459 15.625Z" stroke="#47654A" stroke-width="2" stroke-linecap="round" stroke-linejoin="round"/>
</svg>
